Coordinates
version=1
nRows=7
nColumns=42
inDegrees=yes

Units are S.I. units (second, meters, Newtons, ...)
If the header above contains a line with 'inDegrees', this indicates whether rotational values are in degrees (yes) or radians (no).

endheader
time	pelvis_tilt	pelvis_list	pelvis_rotation	pelvis_tx	pelvis_ty	pelvis_tz	hip_flexion_r	hip_adduction_r	hip_rotation_r	knee_angle_r	knee_angle_r_beta	ankle_angle_r	subtalar_angle_r	mtp_angle_r	hip_flexion_l	hip_adduction_l	hip_rotation_l	knee_angle_l	knee_angle_l_beta	ankle_angle_l	subtalar_angle_l	mtp_angle_l	lumbar_extension	lumbar_bending	lumbar_rotation	sh_tx_r	sh_ty_r	sh_tz_r	sh_plane_elev_r	sh_elev_r	sh_axial_rot_r	elbow_flex_r	pro_sup_r	sh_tx_l	sh_ty_l	sh_tz_l	sh_plane_elev_l	sh_elev_l	sh_axial_rot_l	elbow_flex_l	pro_sup_l
      2.66101700	     -3.83921366	      0.41894141	      3.08547720	      0.26686923	      0.93352065	     -0.07423812	      1.18543275	     -5.04495272	    -12.27580908	      0.49324831	      0.00860881	     -0.67178505	    -13.01625564	     -7.49999987	      1.90918293	     -2.71903956	     -2.76466823	      1.31582092	      0.02296541	      7.38692865	      1.03499842	     -7.49999987	      0.81644635	      2.35197915	     -2.02181252	     -0.00655908	     -0.00816528	     -0.00664577	     -6.78898623	      4.99687931	      6.09192740	     27.25737124	     95.10515379	     -0.01770188	      0.02645422	     -0.00661565	     14.05131172	     86.31547405	    -66.41303820	    100.60254290	     79.16654552
      2.67796610	     -4.26553260	      0.32818922	      2.99320927	      0.26490609	      0.93267471	     -0.07535409	      2.63640901	     -5.25831867	    -12.34814977	      2.26376369	      0.03951013	      0.38263616	    -12.65399715	     -7.49999987	      3.47395647	     -2.77675414	     -2.99361805	      3.37006858	      0.05881879	      8.32797479	      0.51526429	     -7.49999987	      1.14472097	      3.18638944	     -1.14480981	     -0.00789369	     -0.00036504	     -0.00553601	     -6.16346436	      6.14737616	      6.47409562	     28.44904705	     93.44958687	     -0.01090237	      0.02350129	     -0.00519176	     13.60595513	     86.49328040	    -66.68933203	     99.86757727	     78.26235821
      2.69491530	     -4.06941879	      0.47655615	      3.25958489	      0.26706540	      0.93353586	     -0.07428893	      1.39691163	     -5.13819900	    -12.55465621	      0.51756822	      0.00903327	     -0.36857479	    -12.46559843	     -7.49999987	      2.25567359	     -2.61345163	     -2.88256323	      1.42254313	      0.02482806	      7.48918457	      1.17927146	     -7.49999987	      1.26471322	      2.22547181	     -2.29861680	     -0.00480006	     -0.00759941	     -0.00665887	     -5.68322313	      5.14526902	      7.79719899	     26.57236361	     92.23216786	     -0.01672208	      0.02840332	     -0.00652457	     13.57829221	     86.34037677	    -68.63357659	    100.70375098	     77.74779037
      2.71186440	     -3.84593889	      0.52916955	      3.23024027	      0.26721186	      0.93386250	     -0.07445365	      1.15042480	     -5.17702698	    -12.02929938	      0.50938395	      0.00889043	     -0.69584873	    -13.38139923	     -7.49999987	      2.00236512	     -2.57435281	     -2.72293151	      1.34084211	      0.02340211	      7.35291849	      0.73850663	     -7.49999987	      0.74946159	      2.19346314	     -1.48980679	     -0.00872232	     -0.00756545	     -0.00656819	     -6.24780224	      5.05990940	      4.95476705	     26.95051957	     98.26597908	     -0.01746464	      0.02489255	     -0.00662865	     14.54069524	     87.53684107	    -69.28322066	     99.06765428	     77.80490872
      2.72881360	     -3.84083688	      0.57524351	      3.27070799	      0.26699318	      0.93398139	     -0.07413718	      1.14456165	     -5.21609043	    -12.21122446	      0.51501525	      0.00898871	     -0.67741123	    -13.24137767	     -7.49999987	      1.99091330	     -2.54855520	     -2.71116195	      1.27962685	      0.02233370	      7.27920035	      0.73713755	     -7.49999987	      0.82313233	      2.14810034	     -1.79414219	     -0.00741582	     -0.00732186	     -0.00658731	     -6.07361875	      5.02394100	      5.42174021	     26.69291534	     96.94392861	     -0.01755366	      0.02492260	     -0.00665095	     14.22952232	     87.50145823	    -69.61811762	     99.01767650	     77.12534081
      2.74576270	     -4.09662251	      0.58968876	      3.28956928	      0.26739913	      0.93381545	     -0.07449866	      1.46133732	     -5.26843351	    -12.33413805	      0.53477444	      0.00933357	     -0.65718204	    -13.07942843	     -7.49999987	      2.26135155	     -2.52685668	     -2.74684489	      1.23201150	      0.02150266	      7.32328378	      0.85046435	     -7.49999987	      1.15720064	      2.11773709	     -1.92046788	     -0.00793015	     -0.00782680	     -0.00658635	     -5.73887674	      5.08327278	      5.75818638	     26.83510189	     95.77263803	     -0.01867157	      0.02495715	     -0.00661060	     14.20343739	     87.29978829	    -70.01238261	     98.89388246	     76.58992123
      2.76271190	     -4.15125118	      0.58218612	      3.27639249	      0.26713608	      0.93699248	     -0.07398271	      1.55903312	     -5.26465018	    -12.37816355	      0.52153974	      0.00910259	     -0.63826083	    -13.03262530	     -7.49999987	      2.33218446	     -2.55804531	     -3.00066056	      1.20399973	      0.02101376	      7.31375730	      1.24903342	     -7.49999987	      1.52273783	      2.18672439	     -2.17503479	     -0.00518085	     -0.00762496	     -0.00659238	     -5.70877790	      4.98482420	      6.32371758	     25.73949882	     95.21852678	     -0.01584523	      0.02562902	     -0.00658511	     13.72032038	     86.60583054	    -70.45379979	     99.33757397	     76.44548926
